<mxfile host="Electron" modified="2023-11-27T06:43:37.638Z" agent="Mozilla/5.0 (Windows NT 10.0; Win64; x64) AppleWebKit/537.36 (KHTML, like Gecko) draw.io/22.0.3 Chrome/114.0.5735.289 Electron/25.8.4 Safari/537.36" etag="nkAPxkKqqRU8x53Fdl_a" version="22.0.3" type="device">
  <diagram name="第 1 页" id="m0Fjah_jcmccOi_mhcMv">
    <mxGraphModel dx="569" dy="394" grid="1" gridSize="10" guides="1" tooltips="1" connect="1" arrows="1" fold="1" page="1" pageScale="1" pageWidth="10000" pageHeight="10000" math="0" shadow="0">
      <root>
        <mxCell id="0" />
        <mxCell id="1" parent="0" />
        <mxCell id="MaD9hL2jKA9bnfQbx7Aa-2" style="rounded=0;orthogonalLoop=1;jettySize=auto;html=1;exitX=0.5;exitY=1;exitDx=0;exitDy=0;entryX=0.5;entryY=0;entryDx=0;entryDy=0;strokeWidth=2;fontFamily=Comic Sans MS;fontStyle=1;fontColor=#FFFFFF;" parent="1" source="MaD9hL2jKA9bnfQbx7Aa-1" target="MaD9hL2jKA9bnfQbx7Aa-3" edge="1">
          <mxGeometry relative="1" as="geometry">
            <mxPoint x="520" y="340" as="targetPoint" />
          </mxGeometry>
        </mxCell>
        <mxCell id="MaD9hL2jKA9bnfQbx7Aa-1" value="2" style="ellipse;whiteSpace=wrap;html=1;strokeWidth=2;fillColor=#a20025;fontColor=#FFFFFF;strokeColor=#6F0000;fontFamily=Comic Sans MS;fontStyle=1" parent="1" vertex="1">
          <mxGeometry x="560" y="280" width="40" height="40" as="geometry" />
        </mxCell>
        <mxCell id="MaD9hL2jKA9bnfQbx7Aa-3" value="4" style="ellipse;whiteSpace=wrap;html=1;strokeWidth=2;fillColor=#1ba1e2;fontColor=#FFFFFF;strokeColor=#006EAF;fontFamily=Comic Sans MS;fontStyle=1" parent="1" vertex="1">
          <mxGeometry x="530" y="340" width="40" height="40" as="geometry" />
        </mxCell>
        <mxCell id="MaD9hL2jKA9bnfQbx7Aa-5" value="5" style="ellipse;whiteSpace=wrap;html=1;strokeWidth=2;fillColor=#0050ef;fontColor=#FFFFFF;strokeColor=#001DBC;fontFamily=Comic Sans MS;fontStyle=1" parent="1" vertex="1">
          <mxGeometry x="460" y="400" width="40" height="40" as="geometry" />
        </mxCell>
        <mxCell id="MaD9hL2jKA9bnfQbx7Aa-6" value="0" style="ellipse;whiteSpace=wrap;html=1;strokeWidth=2;fillColor=#f0a30a;fontColor=#FFFFFF;strokeColor=#BD7000;fontFamily=Comic Sans MS;fontStyle=1" parent="1" vertex="1">
          <mxGeometry x="510" y="400" width="40" height="40" as="geometry" />
        </mxCell>
        <mxCell id="MaD9hL2jKA9bnfQbx7Aa-7" value="2" style="ellipse;whiteSpace=wrap;html=1;strokeWidth=2;fillColor=#008a00;fontColor=#FFFFFF;strokeColor=#005700;fontFamily=Comic Sans MS;fontStyle=1" parent="1" vertex="1">
          <mxGeometry x="560" y="400" width="40" height="40" as="geometry" />
        </mxCell>
        <mxCell id="MaD9hL2jKA9bnfQbx7Aa-9" value="8" style="ellipse;whiteSpace=wrap;html=1;strokeWidth=2;fillColor=#6a00ff;fontColor=#FFFFFF;strokeColor=#3700CC;fontFamily=Comic Sans MS;fontStyle=1" parent="1" vertex="1">
          <mxGeometry x="530" y="460" width="40" height="40" as="geometry" />
        </mxCell>
        <mxCell id="MaD9hL2jKA9bnfQbx7Aa-10" value="6" style="ellipse;whiteSpace=wrap;html=1;strokeWidth=2;fillColor=#a0522d;fontColor=#FFFFFF;strokeColor=#6D1F00;fontFamily=Comic Sans MS;fontStyle=1" parent="1" vertex="1">
          <mxGeometry x="630" y="400" width="40" height="40" as="geometry" />
        </mxCell>
        <mxCell id="MaD9hL2jKA9bnfQbx7Aa-11" style="rounded=0;orthogonalLoop=1;jettySize=auto;html=1;exitX=0.5;exitY=1;exitDx=0;exitDy=0;entryX=0.5;entryY=0;entryDx=0;entryDy=0;strokeWidth=2;fontFamily=Comic Sans MS;fontStyle=1;fontColor=#FFFFFF;" parent="1" source="MaD9hL2jKA9bnfQbx7Aa-1" target="MaD9hL2jKA9bnfQbx7Aa-12" edge="1">
          <mxGeometry relative="1" as="geometry">
            <mxPoint x="640" y="330" as="targetPoint" />
            <mxPoint x="660" y="320" as="sourcePoint" />
          </mxGeometry>
        </mxCell>
        <mxCell id="MaD9hL2jKA9bnfQbx7Aa-16" style="rounded=0;orthogonalLoop=1;jettySize=auto;html=1;exitX=0.5;exitY=1;exitDx=0;exitDy=0;entryX=0.5;entryY=0;entryDx=0;entryDy=0;strokeWidth=2;fontFamily=Comic Sans MS;fontStyle=1;fontColor=#FFFFFF;" parent="1" source="MaD9hL2jKA9bnfQbx7Aa-12" target="MaD9hL2jKA9bnfQbx7Aa-10" edge="1">
          <mxGeometry relative="1" as="geometry" />
        </mxCell>
        <mxCell id="MaD9hL2jKA9bnfQbx7Aa-12" value="1" style="ellipse;whiteSpace=wrap;html=1;strokeWidth=2;fillColor=#e3c800;fontColor=#FFFFFF;strokeColor=#B09500;fontFamily=Comic Sans MS;fontStyle=1" parent="1" vertex="1">
          <mxGeometry x="590" y="340" width="40" height="40" as="geometry" />
        </mxCell>
        <mxCell id="MaD9hL2jKA9bnfQbx7Aa-13" style="rounded=0;orthogonalLoop=1;jettySize=auto;html=1;exitX=0.5;exitY=1;exitDx=0;exitDy=0;entryX=0.5;entryY=0;entryDx=0;entryDy=0;strokeWidth=2;fontFamily=Comic Sans MS;fontStyle=1;fontColor=#FFFFFF;" parent="1" source="MaD9hL2jKA9bnfQbx7Aa-3" target="MaD9hL2jKA9bnfQbx7Aa-5" edge="1">
          <mxGeometry relative="1" as="geometry">
            <mxPoint x="630" y="370" as="targetPoint" />
            <mxPoint x="590" y="330" as="sourcePoint" />
          </mxGeometry>
        </mxCell>
        <mxCell id="MaD9hL2jKA9bnfQbx7Aa-14" style="rounded=0;orthogonalLoop=1;jettySize=auto;html=1;exitX=0.5;exitY=1;exitDx=0;exitDy=0;entryX=0.5;entryY=0;entryDx=0;entryDy=0;strokeWidth=2;fontFamily=Comic Sans MS;fontStyle=1;fontColor=#FFFFFF;" parent="1" source="MaD9hL2jKA9bnfQbx7Aa-3" target="MaD9hL2jKA9bnfQbx7Aa-6" edge="1">
          <mxGeometry relative="1" as="geometry">
            <mxPoint x="640" y="380" as="targetPoint" />
            <mxPoint x="600" y="340" as="sourcePoint" />
          </mxGeometry>
        </mxCell>
        <mxCell id="MaD9hL2jKA9bnfQbx7Aa-15" style="rounded=0;orthogonalLoop=1;jettySize=auto;html=1;entryX=0.5;entryY=0;entryDx=0;entryDy=0;exitX=0.5;exitY=1;exitDx=0;exitDy=0;strokeWidth=2;fontFamily=Comic Sans MS;fontStyle=1;fontColor=#FFFFFF;" parent="1" source="MaD9hL2jKA9bnfQbx7Aa-3" target="MaD9hL2jKA9bnfQbx7Aa-7" edge="1">
          <mxGeometry relative="1" as="geometry">
            <mxPoint x="650" y="390" as="targetPoint" />
            <mxPoint x="540" y="400" as="sourcePoint" />
          </mxGeometry>
        </mxCell>
        <mxCell id="MaD9hL2jKA9bnfQbx7Aa-17" style="rounded=0;orthogonalLoop=1;jettySize=auto;html=1;entryX=0.5;entryY=0;entryDx=0;entryDy=0;exitX=0.5;exitY=1;exitDx=0;exitDy=0;strokeWidth=2;fontFamily=Comic Sans MS;fontStyle=1;fontColor=#FFFFFF;" parent="1" source="MaD9hL2jKA9bnfQbx7Aa-7" target="MaD9hL2jKA9bnfQbx7Aa-9" edge="1">
          <mxGeometry relative="1" as="geometry">
            <mxPoint x="600" y="450" as="targetPoint" />
            <mxPoint x="560" y="410" as="sourcePoint" />
          </mxGeometry>
        </mxCell>
        <mxCell id="MaD9hL2jKA9bnfQbx7Aa-18" value="&lt;span&gt;孩子兄弟表示法&lt;/span&gt;" style="text;html=1;align=center;verticalAlign=middle;resizable=0;points=[];autosize=1;strokeColor=none;fillColor=none;fontFamily=Comic Sans MS;strokeWidth=2;fontStyle=1;fontColor=#FFFFFF;" parent="1" vertex="1">
          <mxGeometry x="560" y="240" width="110" height="30" as="geometry" />
        </mxCell>
        <mxCell id="MaD9hL2jKA9bnfQbx7Aa-26" value="" style="group;fontFamily=Comic Sans MS;fontStyle=1;fontColor=#FFFFFF;strokeWidth=2;" parent="1" vertex="1" connectable="0">
          <mxGeometry x="680" y="280" width="60" height="40" as="geometry" />
        </mxCell>
        <mxCell id="MaD9hL2jKA9bnfQbx7Aa-20" value="2" style="whiteSpace=wrap;html=1;strokeWidth=2;fillColor=#a20025;fontColor=#FFFFFF;strokeColor=#6F0000;fontFamily=Comic Sans MS;fontStyle=1" parent="MaD9hL2jKA9bnfQbx7Aa-26" vertex="1">
          <mxGeometry width="20" height="40" as="geometry" />
        </mxCell>
        <mxCell id="MaD9hL2jKA9bnfQbx7Aa-21" value="fc" style="whiteSpace=wrap;html=1;strokeWidth=2;fillColor=none;fontColor=#FFFFFF;strokeColor=#6F0000;fontFamily=Comic Sans MS;fontStyle=1" parent="MaD9hL2jKA9bnfQbx7Aa-26" vertex="1">
          <mxGeometry x="20" width="20" height="40" as="geometry" />
        </mxCell>
        <mxCell id="MaD9hL2jKA9bnfQbx7Aa-22" value="b" style="whiteSpace=wrap;html=1;strokeWidth=2;fillColor=none;fontColor=#FFFFFF;strokeColor=#6F0000;fontFamily=Comic Sans MS;fontStyle=1" parent="MaD9hL2jKA9bnfQbx7Aa-26" vertex="1">
          <mxGeometry x="40" width="20" height="40" as="geometry" />
        </mxCell>
        <mxCell id="MaD9hL2jKA9bnfQbx7Aa-27" value="" style="group;fillColor=none;fontColor=#FFFFFF;strokeColor=#006EAF;fontFamily=Comic Sans MS;fontStyle=1;strokeWidth=2;" parent="1" vertex="1" connectable="0">
          <mxGeometry x="700" y="340" width="60" height="40" as="geometry" />
        </mxCell>
        <mxCell id="MaD9hL2jKA9bnfQbx7Aa-23" value="4" style="whiteSpace=wrap;html=1;strokeWidth=2;fillColor=#1ba1e2;fontColor=#FFFFFF;strokeColor=#006EAF;fontFamily=Comic Sans MS;fontStyle=1" parent="MaD9hL2jKA9bnfQbx7Aa-27" vertex="1">
          <mxGeometry width="20" height="40" as="geometry" />
        </mxCell>
        <mxCell id="MaD9hL2jKA9bnfQbx7Aa-24" value="fc" style="whiteSpace=wrap;html=1;strokeWidth=2;fillColor=default;fontColor=#FFFFFF;strokeColor=#006EAF;fontFamily=Comic Sans MS;fontStyle=1" parent="MaD9hL2jKA9bnfQbx7Aa-27" vertex="1">
          <mxGeometry x="20" width="20" height="40" as="geometry" />
        </mxCell>
        <mxCell id="MaD9hL2jKA9bnfQbx7Aa-25" value="b" style="whiteSpace=wrap;html=1;strokeWidth=2;fillColor=none;fontColor=#FFFFFF;strokeColor=#006EAF;fontFamily=Comic Sans MS;fontStyle=1" parent="MaD9hL2jKA9bnfQbx7Aa-27" vertex="1">
          <mxGeometry x="40" width="20" height="40" as="geometry" />
        </mxCell>
        <mxCell id="MaD9hL2jKA9bnfQbx7Aa-32" value="" style="group;fillColor=none;fontColor=#FFFFFF;strokeColor=#001DBC;fontFamily=Comic Sans MS;fontStyle=1;strokeWidth=2;" parent="1" vertex="1" connectable="0">
          <mxGeometry x="720" y="400" width="60" height="40" as="geometry" />
        </mxCell>
        <mxCell id="MaD9hL2jKA9bnfQbx7Aa-33" value="5" style="whiteSpace=wrap;html=1;strokeWidth=2;fillColor=#0050ef;fontColor=#FFFFFF;strokeColor=#001DBC;fontFamily=Comic Sans MS;fontStyle=1" parent="MaD9hL2jKA9bnfQbx7Aa-32" vertex="1">
          <mxGeometry width="20" height="40" as="geometry" />
        </mxCell>
        <mxCell id="MaD9hL2jKA9bnfQbx7Aa-34" value="fc" style="whiteSpace=wrap;html=1;strokeWidth=2;fillColor=default;fontColor=#FFFFFF;strokeColor=#001DBC;fontFamily=Comic Sans MS;fontStyle=1" parent="MaD9hL2jKA9bnfQbx7Aa-32" vertex="1">
          <mxGeometry x="20" width="20" height="40" as="geometry" />
        </mxCell>
        <mxCell id="MaD9hL2jKA9bnfQbx7Aa-35" value="b" style="whiteSpace=wrap;html=1;strokeWidth=2;fillColor=none;fontColor=#FFFFFF;strokeColor=#001DBC;fontFamily=Comic Sans MS;fontStyle=1" parent="MaD9hL2jKA9bnfQbx7Aa-32" vertex="1">
          <mxGeometry x="40" width="20" height="40" as="geometry" />
        </mxCell>
        <mxCell id="MaD9hL2jKA9bnfQbx7Aa-36" value="" style="group;fillColor=#f0a30a;fontColor=#FFFFFF;strokeColor=#BD7000;fontFamily=Comic Sans MS;fontStyle=1;strokeWidth=2;" parent="1" vertex="1" connectable="0">
          <mxGeometry x="820" y="400" width="60" height="40" as="geometry" />
        </mxCell>
        <mxCell id="MaD9hL2jKA9bnfQbx7Aa-37" value="0" style="whiteSpace=wrap;html=1;strokeWidth=2;fillColor=#f0a30a;fontColor=#FFFFFF;strokeColor=#BD7000;fontFamily=Comic Sans MS;fontStyle=1" parent="MaD9hL2jKA9bnfQbx7Aa-36" vertex="1">
          <mxGeometry width="20" height="40" as="geometry" />
        </mxCell>
        <mxCell id="MaD9hL2jKA9bnfQbx7Aa-38" value="fc" style="whiteSpace=wrap;html=1;strokeWidth=2;fillColor=default;fontColor=#FFFFFF;strokeColor=#BD7000;fontFamily=Comic Sans MS;fontStyle=1" parent="MaD9hL2jKA9bnfQbx7Aa-36" vertex="1">
          <mxGeometry x="20" width="20" height="40" as="geometry" />
        </mxCell>
        <mxCell id="MaD9hL2jKA9bnfQbx7Aa-39" value="b" style="whiteSpace=wrap;html=1;strokeWidth=2;fillColor=default;fontColor=#FFFFFF;strokeColor=#BD7000;fontFamily=Comic Sans MS;fontStyle=1" parent="MaD9hL2jKA9bnfQbx7Aa-36" vertex="1">
          <mxGeometry x="40" width="20" height="40" as="geometry" />
        </mxCell>
        <mxCell id="MaD9hL2jKA9bnfQbx7Aa-44" value="" style="group;fillColor=#008a00;fontColor=#FFFFFF;strokeColor=#005700;fontFamily=Comic Sans MS;fontStyle=1;strokeWidth=2;" parent="1" vertex="1" connectable="0">
          <mxGeometry x="910" y="400" width="60" height="40" as="geometry" />
        </mxCell>
        <mxCell id="MaD9hL2jKA9bnfQbx7Aa-45" value="2" style="whiteSpace=wrap;html=1;strokeWidth=2;fillColor=#008a00;fontColor=#FFFFFF;strokeColor=#005700;fontFamily=Comic Sans MS;fontStyle=1" parent="MaD9hL2jKA9bnfQbx7Aa-44" vertex="1">
          <mxGeometry width="20" height="40" as="geometry" />
        </mxCell>
        <mxCell id="MaD9hL2jKA9bnfQbx7Aa-46" value="fc" style="whiteSpace=wrap;html=1;strokeWidth=2;fillColor=default;fontColor=#FFFFFF;strokeColor=#005700;fontFamily=Comic Sans MS;fontStyle=1" parent="MaD9hL2jKA9bnfQbx7Aa-44" vertex="1">
          <mxGeometry x="20" width="20" height="40" as="geometry" />
        </mxCell>
        <mxCell id="MaD9hL2jKA9bnfQbx7Aa-47" value="b" style="whiteSpace=wrap;html=1;strokeWidth=2;fillColor=default;fontColor=#FFFFFF;strokeColor=#005700;fontFamily=Comic Sans MS;fontStyle=1" parent="MaD9hL2jKA9bnfQbx7Aa-44" vertex="1">
          <mxGeometry x="40" width="20" height="40" as="geometry" />
        </mxCell>
        <mxCell id="MaD9hL2jKA9bnfQbx7Aa-48" value="" style="group;fillColor=#6a00ff;fontColor=#FFFFFF;strokeColor=#3700CC;fontFamily=Comic Sans MS;fontStyle=1;strokeWidth=2;" parent="1" vertex="1" connectable="0">
          <mxGeometry x="740" y="460" width="60" height="40" as="geometry" />
        </mxCell>
        <mxCell id="MaD9hL2jKA9bnfQbx7Aa-49" value="8" style="whiteSpace=wrap;html=1;strokeWidth=2;fillColor=#6a00ff;fontColor=#FFFFFF;strokeColor=#3700CC;fontFamily=Comic Sans MS;fontStyle=1" parent="MaD9hL2jKA9bnfQbx7Aa-48" vertex="1">
          <mxGeometry width="20" height="40" as="geometry" />
        </mxCell>
        <mxCell id="MaD9hL2jKA9bnfQbx7Aa-50" value="fc" style="whiteSpace=wrap;html=1;strokeWidth=2;fillColor=default;fontColor=#FFFFFF;strokeColor=#3700CC;fontFamily=Comic Sans MS;fontStyle=1" parent="MaD9hL2jKA9bnfQbx7Aa-48" vertex="1">
          <mxGeometry x="20" width="20" height="40" as="geometry" />
        </mxCell>
        <mxCell id="MaD9hL2jKA9bnfQbx7Aa-51" value="b" style="whiteSpace=wrap;html=1;strokeWidth=2;fillColor=default;fontColor=#FFFFFF;strokeColor=#3700CC;fontFamily=Comic Sans MS;fontStyle=1" parent="MaD9hL2jKA9bnfQbx7Aa-48" vertex="1">
          <mxGeometry x="40" width="20" height="40" as="geometry" />
        </mxCell>
        <mxCell id="MaD9hL2jKA9bnfQbx7Aa-52" value="" style="group;fillColor=#e3c800;fontColor=#FFFFFF;strokeColor=#B09500;fontFamily=Comic Sans MS;fontStyle=1;strokeWidth=2;" parent="1" vertex="1" connectable="0">
          <mxGeometry x="800" y="340" width="60" height="40" as="geometry" />
        </mxCell>
        <mxCell id="MaD9hL2jKA9bnfQbx7Aa-53" value="1" style="whiteSpace=wrap;html=1;strokeWidth=2;fillColor=#e3c800;fontColor=#FFFFFF;strokeColor=#B09500;fontFamily=Comic Sans MS;fontStyle=1" parent="MaD9hL2jKA9bnfQbx7Aa-52" vertex="1">
          <mxGeometry width="20" height="40" as="geometry" />
        </mxCell>
        <mxCell id="MaD9hL2jKA9bnfQbx7Aa-54" value="fc" style="whiteSpace=wrap;html=1;strokeWidth=2;fillColor=default;fontColor=#FFFFFF;strokeColor=#B09500;fontFamily=Comic Sans MS;fontStyle=1" parent="MaD9hL2jKA9bnfQbx7Aa-52" vertex="1">
          <mxGeometry x="20" width="20" height="40" as="geometry" />
        </mxCell>
        <mxCell id="MaD9hL2jKA9bnfQbx7Aa-55" value="b" style="whiteSpace=wrap;html=1;strokeWidth=2;fillColor=default;fontColor=#FFFFFF;strokeColor=#B09500;fontFamily=Comic Sans MS;fontStyle=1" parent="MaD9hL2jKA9bnfQbx7Aa-52" vertex="1">
          <mxGeometry x="40" width="20" height="40" as="geometry" />
        </mxCell>
        <mxCell id="MaD9hL2jKA9bnfQbx7Aa-56" value="" style="group;fillColor=#a0522d;fontColor=#ffffff;strokeColor=#6D1F00;fontFamily=Comic Sans MS;fontStyle=1;strokeWidth=2;" parent="1" vertex="1" connectable="0">
          <mxGeometry x="1010" y="400" width="60" height="40" as="geometry" />
        </mxCell>
        <mxCell id="MaD9hL2jKA9bnfQbx7Aa-57" value="6" style="whiteSpace=wrap;html=1;strokeWidth=2;fillColor=#a0522d;fontColor=#ffffff;strokeColor=#6D1F00;fontFamily=Comic Sans MS;fontStyle=1" parent="MaD9hL2jKA9bnfQbx7Aa-56" vertex="1">
          <mxGeometry width="20" height="40" as="geometry" />
        </mxCell>
        <mxCell id="MaD9hL2jKA9bnfQbx7Aa-58" value="fc" style="whiteSpace=wrap;html=1;strokeWidth=2;fillColor=default;fontColor=#ffffff;strokeColor=#6D1F00;fontFamily=Comic Sans MS;fontStyle=1" parent="MaD9hL2jKA9bnfQbx7Aa-56" vertex="1">
          <mxGeometry x="20" width="20" height="40" as="geometry" />
        </mxCell>
        <mxCell id="MaD9hL2jKA9bnfQbx7Aa-59" value="b" style="whiteSpace=wrap;html=1;strokeWidth=2;fillColor=default;fontColor=#ffffff;strokeColor=#6D1F00;fontFamily=Comic Sans MS;fontStyle=1" parent="MaD9hL2jKA9bnfQbx7Aa-56" vertex="1">
          <mxGeometry x="40" width="20" height="40" as="geometry" />
        </mxCell>
        <mxCell id="MaD9hL2jKA9bnfQbx7Aa-60" style="rounded=0;orthogonalLoop=1;jettySize=auto;html=1;exitX=0.5;exitY=1;exitDx=0;exitDy=0;entryX=0.5;entryY=0;entryDx=0;entryDy=0;strokeWidth=2;fontStyle=1;fontFamily=Comic Sans MS;" parent="1" source="MaD9hL2jKA9bnfQbx7Aa-21" target="MaD9hL2jKA9bnfQbx7Aa-23" edge="1">
          <mxGeometry relative="1" as="geometry" />
        </mxCell>
        <mxCell id="MaD9hL2jKA9bnfQbx7Aa-62" style="rounded=0;orthogonalLoop=1;jettySize=auto;html=1;exitX=0.5;exitY=1;exitDx=0;exitDy=0;entryX=0.5;entryY=0;entryDx=0;entryDy=0;strokeWidth=2;fontStyle=1;fontFamily=Comic Sans MS;" parent="1" source="MaD9hL2jKA9bnfQbx7Aa-24" target="MaD9hL2jKA9bnfQbx7Aa-33" edge="1">
          <mxGeometry relative="1" as="geometry" />
        </mxCell>
        <mxCell id="MaD9hL2jKA9bnfQbx7Aa-63" style="rounded=0;orthogonalLoop=1;jettySize=auto;html=1;exitX=0.5;exitY=1;exitDx=0;exitDy=0;entryX=0.5;entryY=0;entryDx=0;entryDy=0;strokeWidth=2;fontStyle=1;fontFamily=Comic Sans MS;" parent="1" source="MaD9hL2jKA9bnfQbx7Aa-34" target="MaD9hL2jKA9bnfQbx7Aa-49" edge="1">
          <mxGeometry relative="1" as="geometry">
            <mxPoint x="750" y="520" as="sourcePoint" />
          </mxGeometry>
        </mxCell>
        <mxCell id="MaD9hL2jKA9bnfQbx7Aa-64" style="rounded=0;orthogonalLoop=1;jettySize=auto;html=1;exitX=1;exitY=0.5;exitDx=0;exitDy=0;entryX=0;entryY=0.5;entryDx=0;entryDy=0;strokeWidth=2;fontStyle=1;fontFamily=Comic Sans MS;" parent="1" source="MaD9hL2jKA9bnfQbx7Aa-35" target="MaD9hL2jKA9bnfQbx7Aa-37" edge="1">
          <mxGeometry relative="1" as="geometry" />
        </mxCell>
        <mxCell id="MaD9hL2jKA9bnfQbx7Aa-65" style="rounded=0;orthogonalLoop=1;jettySize=auto;html=1;exitX=1;exitY=0.5;exitDx=0;exitDy=0;strokeWidth=2;fontStyle=1;fontFamily=Comic Sans MS;" parent="1" source="MaD9hL2jKA9bnfQbx7Aa-39" target="MaD9hL2jKA9bnfQbx7Aa-45" edge="1">
          <mxGeometry relative="1" as="geometry" />
        </mxCell>
        <mxCell id="MaD9hL2jKA9bnfQbx7Aa-66" style="rounded=0;orthogonalLoop=1;jettySize=auto;html=1;exitX=1;exitY=0.5;exitDx=0;exitDy=0;entryX=0;entryY=0.5;entryDx=0;entryDy=0;strokeWidth=2;fontStyle=1;fontFamily=Comic Sans MS;" parent="1" source="MaD9hL2jKA9bnfQbx7Aa-25" target="MaD9hL2jKA9bnfQbx7Aa-53" edge="1">
          <mxGeometry relative="1" as="geometry" />
        </mxCell>
        <mxCell id="MaD9hL2jKA9bnfQbx7Aa-67" style="rounded=0;orthogonalLoop=1;jettySize=auto;html=1;exitX=1;exitY=0.5;exitDx=0;exitDy=0;entryX=0;entryY=0.5;entryDx=0;entryDy=0;strokeWidth=2;fontStyle=1;fontFamily=Comic Sans MS;" parent="1" source="MaD9hL2jKA9bnfQbx7Aa-47" target="MaD9hL2jKA9bnfQbx7Aa-57" edge="1">
          <mxGeometry relative="1" as="geometry" />
        </mxCell>
        <mxCell id="mAeSx2t8rqNyLib7PyKI-1" style="rounded=0;orthogonalLoop=1;jettySize=auto;html=1;exitX=0.5;exitY=1;exitDx=0;exitDy=0;entryX=0.5;entryY=0;entryDx=0;entryDy=0;strokeWidth=2;fontFamily=Comic Sans MS;fontStyle=1;fontColor=#FFFFFF;" edge="1" parent="1" source="mAeSx2t8rqNyLib7PyKI-2" target="mAeSx2t8rqNyLib7PyKI-3">
          <mxGeometry relative="1" as="geometry">
            <mxPoint x="520" y="680" as="targetPoint" />
          </mxGeometry>
        </mxCell>
        <mxCell id="mAeSx2t8rqNyLib7PyKI-2" value="2" style="ellipse;whiteSpace=wrap;html=1;strokeWidth=2;fillColor=#a20025;fontColor=#FFFFFF;strokeColor=#6F0000;fontFamily=Comic Sans MS;fontStyle=1" vertex="1" parent="1">
          <mxGeometry x="560" y="600" width="40" height="40" as="geometry" />
        </mxCell>
        <mxCell id="mAeSx2t8rqNyLib7PyKI-3" value="4" style="ellipse;whiteSpace=wrap;html=1;strokeWidth=2;fillColor=#1ba1e2;fontColor=#FFFFFF;strokeColor=#006EAF;fontFamily=Comic Sans MS;fontStyle=1" vertex="1" parent="1">
          <mxGeometry x="520" y="660" width="40" height="40" as="geometry" />
        </mxCell>
        <mxCell id="mAeSx2t8rqNyLib7PyKI-4" value="5" style="ellipse;whiteSpace=wrap;html=1;strokeWidth=2;fillColor=#0050ef;fontColor=#FFFFFF;strokeColor=#001DBC;fontFamily=Comic Sans MS;fontStyle=1" vertex="1" parent="1">
          <mxGeometry x="460" y="725" width="40" height="40" as="geometry" />
        </mxCell>
        <mxCell id="mAeSx2t8rqNyLib7PyKI-5" value="0" style="ellipse;whiteSpace=wrap;html=1;strokeWidth=2;fillColor=#f0a30a;fontColor=#FFFFFF;strokeColor=#BD7000;fontFamily=Comic Sans MS;fontStyle=1" vertex="1" parent="1">
          <mxGeometry x="510" y="725" width="40" height="40" as="geometry" />
        </mxCell>
        <mxCell id="mAeSx2t8rqNyLib7PyKI-6" value="2" style="ellipse;whiteSpace=wrap;html=1;strokeWidth=2;fillColor=#008a00;fontColor=#FFFFFF;strokeColor=#005700;fontFamily=Comic Sans MS;fontStyle=1" vertex="1" parent="1">
          <mxGeometry x="560" y="725" width="40" height="40" as="geometry" />
        </mxCell>
        <mxCell id="mAeSx2t8rqNyLib7PyKI-7" value="8" style="ellipse;whiteSpace=wrap;html=1;strokeWidth=2;fillColor=#6a00ff;fontColor=#FFFFFF;strokeColor=#3700CC;fontFamily=Comic Sans MS;fontStyle=1" vertex="1" parent="1">
          <mxGeometry x="530" y="785" width="40" height="40" as="geometry" />
        </mxCell>
        <mxCell id="mAeSx2t8rqNyLib7PyKI-8" value="6" style="ellipse;whiteSpace=wrap;html=1;strokeWidth=2;fillColor=#a0522d;fontColor=#FFFFFF;strokeColor=#6D1F00;fontFamily=Comic Sans MS;fontStyle=1" vertex="1" parent="1">
          <mxGeometry x="640" y="725" width="40" height="40" as="geometry" />
        </mxCell>
        <mxCell id="mAeSx2t8rqNyLib7PyKI-9" style="rounded=0;orthogonalLoop=1;jettySize=auto;html=1;exitX=0.5;exitY=1;exitDx=0;exitDy=0;entryX=0.5;entryY=0;entryDx=0;entryDy=0;strokeWidth=2;fontFamily=Comic Sans MS;fontStyle=1;fontColor=#FFFFFF;" edge="1" parent="1" source="mAeSx2t8rqNyLib7PyKI-2" target="mAeSx2t8rqNyLib7PyKI-11">
          <mxGeometry relative="1" as="geometry">
            <mxPoint x="640" y="670" as="targetPoint" />
            <mxPoint x="660" y="660" as="sourcePoint" />
          </mxGeometry>
        </mxCell>
        <mxCell id="mAeSx2t8rqNyLib7PyKI-10" style="rounded=0;orthogonalLoop=1;jettySize=auto;html=1;exitX=0.5;exitY=1;exitDx=0;exitDy=0;entryX=0.5;entryY=0;entryDx=0;entryDy=0;strokeWidth=2;fontFamily=Comic Sans MS;fontStyle=1;fontColor=#FFFFFF;" edge="1" parent="1" source="mAeSx2t8rqNyLib7PyKI-11" target="mAeSx2t8rqNyLib7PyKI-8">
          <mxGeometry relative="1" as="geometry" />
        </mxCell>
        <mxCell id="mAeSx2t8rqNyLib7PyKI-11" value="1" style="ellipse;whiteSpace=wrap;html=1;strokeWidth=2;fillColor=#e3c800;fontColor=#FFFFFF;strokeColor=#B09500;fontFamily=Comic Sans MS;fontStyle=1" vertex="1" parent="1">
          <mxGeometry x="600" y="660" width="40" height="40" as="geometry" />
        </mxCell>
        <mxCell id="mAeSx2t8rqNyLib7PyKI-12" style="rounded=0;orthogonalLoop=1;jettySize=auto;html=1;exitX=0.5;exitY=1;exitDx=0;exitDy=0;entryX=0.5;entryY=0;entryDx=0;entryDy=0;strokeWidth=2;fontFamily=Comic Sans MS;fontStyle=1;fontColor=#FFFFFF;" edge="1" parent="1" source="mAeSx2t8rqNyLib7PyKI-3" target="mAeSx2t8rqNyLib7PyKI-4">
          <mxGeometry relative="1" as="geometry">
            <mxPoint x="630" y="710" as="targetPoint" />
            <mxPoint x="590" y="670" as="sourcePoint" />
          </mxGeometry>
        </mxCell>
        <mxCell id="mAeSx2t8rqNyLib7PyKI-13" style="rounded=0;orthogonalLoop=1;jettySize=auto;html=1;exitX=0.5;exitY=1;exitDx=0;exitDy=0;entryX=0.5;entryY=0;entryDx=0;entryDy=0;strokeWidth=2;fontFamily=Comic Sans MS;fontStyle=1;fontColor=#FFFFFF;" edge="1" parent="1" source="mAeSx2t8rqNyLib7PyKI-3" target="mAeSx2t8rqNyLib7PyKI-5">
          <mxGeometry relative="1" as="geometry">
            <mxPoint x="640" y="720" as="targetPoint" />
            <mxPoint x="600" y="680" as="sourcePoint" />
          </mxGeometry>
        </mxCell>
        <mxCell id="mAeSx2t8rqNyLib7PyKI-14" style="rounded=0;orthogonalLoop=1;jettySize=auto;html=1;entryX=0.5;entryY=0;entryDx=0;entryDy=0;exitX=0.5;exitY=1;exitDx=0;exitDy=0;strokeWidth=2;fontFamily=Comic Sans MS;fontStyle=1;fontColor=#FFFFFF;" edge="1" parent="1" source="mAeSx2t8rqNyLib7PyKI-3" target="mAeSx2t8rqNyLib7PyKI-6">
          <mxGeometry relative="1" as="geometry">
            <mxPoint x="650" y="730" as="targetPoint" />
            <mxPoint x="540" y="740" as="sourcePoint" />
          </mxGeometry>
        </mxCell>
        <mxCell id="mAeSx2t8rqNyLib7PyKI-15" style="rounded=0;orthogonalLoop=1;jettySize=auto;html=1;entryX=0.5;entryY=0;entryDx=0;entryDy=0;exitX=0.5;exitY=1;exitDx=0;exitDy=0;strokeWidth=2;fontFamily=Comic Sans MS;fontStyle=1;fontColor=#FFFFFF;" edge="1" parent="1" source="mAeSx2t8rqNyLib7PyKI-6" target="mAeSx2t8rqNyLib7PyKI-7">
          <mxGeometry relative="1" as="geometry">
            <mxPoint x="600" y="755" as="targetPoint" />
            <mxPoint x="560" y="715" as="sourcePoint" />
          </mxGeometry>
        </mxCell>
        <mxCell id="mAeSx2t8rqNyLib7PyKI-16" value="深度1" style="text;html=1;align=center;verticalAlign=middle;resizable=0;points=[];autosize=1;strokeColor=none;fillColor=none;fontFamily=Comic Sans MS;fontStyle=1" vertex="1" parent="1">
          <mxGeometry x="380" y="600" width="50" height="30" as="geometry" />
        </mxCell>
        <mxCell id="mAeSx2t8rqNyLib7PyKI-17" value="深度2" style="text;html=1;align=center;verticalAlign=middle;resizable=0;points=[];autosize=1;strokeColor=none;fillColor=none;fontFamily=Comic Sans MS;fontStyle=1" vertex="1" parent="1">
          <mxGeometry x="380" y="660" width="50" height="30" as="geometry" />
        </mxCell>
        <mxCell id="mAeSx2t8rqNyLib7PyKI-18" value="深度3" style="text;html=1;align=center;verticalAlign=middle;resizable=0;points=[];autosize=1;strokeColor=none;fillColor=none;fontFamily=Comic Sans MS;fontStyle=1" vertex="1" parent="1">
          <mxGeometry x="380" y="725" width="50" height="30" as="geometry" />
        </mxCell>
        <mxCell id="mAeSx2t8rqNyLib7PyKI-19" value="深度4" style="text;html=1;align=center;verticalAlign=middle;resizable=0;points=[];autosize=1;strokeColor=none;fillColor=none;fontFamily=Comic Sans MS;fontStyle=1" vertex="1" parent="1">
          <mxGeometry x="380" y="785" width="50" height="30" as="geometry" />
        </mxCell>
        <mxCell id="mAeSx2t8rqNyLib7PyKI-20" value="" style="endArrow=none;dashed=1;html=1;rounded=0;entryX=0.967;entryY=0.543;entryDx=0;entryDy=0;entryPerimeter=0;" edge="1" parent="1">
          <mxGeometry width="50" height="50" relative="1" as="geometry">
            <mxPoint x="680" y="615" as="sourcePoint" />
            <mxPoint x="428.35" y="616.29" as="targetPoint" />
          </mxGeometry>
        </mxCell>
        <mxCell id="mAeSx2t8rqNyLib7PyKI-21" value="" style="endArrow=none;dashed=1;html=1;rounded=0;entryX=0.967;entryY=0.543;entryDx=0;entryDy=0;entryPerimeter=0;" edge="1" parent="1">
          <mxGeometry width="50" height="50" relative="1" as="geometry">
            <mxPoint x="680" y="675" as="sourcePoint" />
            <mxPoint x="428" y="676" as="targetPoint" />
          </mxGeometry>
        </mxCell>
        <mxCell id="mAeSx2t8rqNyLib7PyKI-22" value="" style="endArrow=none;dashed=1;html=1;rounded=0;entryX=0.967;entryY=0.543;entryDx=0;entryDy=0;entryPerimeter=0;" edge="1" parent="1">
          <mxGeometry width="50" height="50" relative="1" as="geometry">
            <mxPoint x="680" y="740" as="sourcePoint" />
            <mxPoint x="428" y="741" as="targetPoint" />
          </mxGeometry>
        </mxCell>
        <mxCell id="mAeSx2t8rqNyLib7PyKI-23" value="" style="endArrow=none;dashed=1;html=1;rounded=0;entryX=0.967;entryY=0.543;entryDx=0;entryDy=0;entryPerimeter=0;" edge="1" parent="1">
          <mxGeometry width="50" height="50" relative="1" as="geometry">
            <mxPoint x="682" y="799" as="sourcePoint" />
            <mxPoint x="430" y="800" as="targetPoint" />
          </mxGeometry>
        </mxCell>
      </root>
    </mxGraphModel>
  </diagram>
</mxfile>
